#usda 1.0
(
    customLayerData = {
    }
)

over "demo_datacentre_01"
{
    over "demo_datacentre_01_Site"
    {
        over "demo_datacentre_01"
        {
            over "L01_Office"
            {
                over "wall_l1_h_010"
                {
                    double aeco:axis:length = 15
                    double aeco:wall:thickness = 0.3
                    rel proxyPrim = </demo_datacentre_01/demo_datacentre_01_Site/demo_datacentre_01/L01_Office/wall_l1_h_010/Proxy>

                    def BasisCurves "Axis" (
                        prepend apiSchemas = ["AecoDerivedGeometryAPI"]
                    )
                    {
                        uniform token aeco:derived:approx = "exact"
                        uniform token aeco:derived:role = "axis"
                        string aeco:derived:source = "46bb8ddc-66ac-5ee6-ba2f-72feb5bf8844"
                        string aeco:derived:stamp = "aeco-sync 0.3.0"
                        double aeco:derived:tolerance = 0.000001
                        int[] curveVertexCounts = [2]
                        float3[] extent = [(0, 0, 0), (15, 0, 0)]
                        point3f[] points = [(0, 0, 0), (15, 0, 0)]
                        uniform token purpose = "guide"
                        uniform token type = "linear"
                        uniform token wrap = "nonperiodic"
                    }

                    def Cube "Proxy" (
                        prepend apiSchemas = ["AecoDerivedGeometryAPI"]
                    )
                    {
                        uniform token aeco:derived:approx = "defaultDims"
                        uniform token aeco:derived:role = "proxy"
                        string aeco:derived:source = "46bb8ddc-66ac-5ee6-ba2f-72feb5bf8844"
                        string aeco:derived:stamp = "aeco-sync 0.3.0"
                        float3[] extent = [(-0.5, -0.5, -0.5), (0.5, 0.5, 0.5)]
                        uniform token purpose = "proxy"
                        double size = 1
                        matrix4d xformOp:transform = ( (15, 0, 0, 0), (0, 0.3, 0, 0), (0, 0, 3.4, 0), (7.5, 0.15, 1.7, 1) )
                        uniform token[] xformOpOrder = ["xformOp:transform"]
                    }

                    over "Geom" (
                        prepend apiSchemas = ["AecoDerivedGeometryAPI"]
                    )
                    {
                        uniform token aeco:derived:approx = "tessellated"
                        uniform token aeco:derived:role = "body"
                        string aeco:derived:source = "46bb8ddc-66ac-5ee6-ba2f-72feb5bf8844"
                        string aeco:derived:stamp = "Offline source fixture; no native solve"
                        float3[] extent = [(0, -0.15, 0), (15, 0.15, 3.4)]
                        int[] faceVertexCounts = [3, 3, 3, 3, 3, 3, 3, 3, 3, 3, 3, 3]
                        int[] faceVertexIndices = [3, 0, 1, 3, 1, 2, 5, 3, 2, 5, 2, 4, 7, 5, 4, 7, 4, 6, 0, 7, 6, 0, 6, 1, 3, 5, 7, 3, 7, 0, 6, 4, 2, 1, 6, 2]
                        point3f[] points = [(0, -0.15, 0), (0, -0.15, 3.4), (0, 0.15, 3.4), (0, 0.15, 0), (15, 0.15, 3.4), (15, 0.15, 0), (15, -0.15, 3.4), (15, -0.15, 0)]
                        uniform token purpose = "render"
                        uniform token subdivisionScheme = "none"
                        matrix4d xformOp:transform = ( (1, 0, 0, 0), (0, 1, 0, 0), (0, 0, 1, 0), (0, 0, 0, 1) )
                        uniform token[] xformOpOrder = ["xformOp:transform"]
                    }
                }
            }

            over "L00_Ground"
            {
                over "rt_clg_fws_main_r_Seg_9"
                {
                    double aeco:axis:length = 1.7999999999999972
                    double aeco:pipe:outerDiameter = 0.25
                    rel proxyPrim = </demo_datacentre_01/demo_datacentre_01_Site/demo_datacentre_01/L00_Ground/rt_clg_fws_main_r_Seg_9/Proxy>

                    def BasisCurves "Axis" (
                        prepend apiSchemas = ["AecoDerivedGeometryAPI"]
                    )
                    {
                        uniform token aeco:derived:approx = "exact"
                        uniform token aeco:derived:role = "axis"
                        string aeco:derived:source = "e4b8ed4b-bb06-525a-b907-1cb5c1d03950"
                        string aeco:derived:stamp = "aeco-sync 0.3.0"
                        double aeco:derived:tolerance = 0.000001
                        int[] curveVertexCounts = [2]
                        float3[] extent = [(0, 0, 0), (0, 0, 1.8)]
                        point3f[] points = [(0, 0, 0), (0, 0, 1.8)]
                        uniform token purpose = "guide"
                        uniform token type = "linear"
                        uniform token wrap = "nonperiodic"
                    }

                    def Cylinder "Proxy" (
                        prepend apiSchemas = ["AecoDerivedGeometryAPI"]
                    )
                    {
                        uniform token aeco:derived:approx = "defaultDims"
                        uniform token aeco:derived:role = "proxy"
                        string aeco:derived:source = "e4b8ed4b-bb06-525a-b907-1cb5c1d03950"
                        string aeco:derived:stamp = "aeco-sync 0.3.0"
                        uniform token axis = "Z"
                        float3[] extent = [(-0.125, -0.125, -0.9), (0.125, 0.125, 0.9)]
                        double height = 1.7999999999999972
                        uniform token purpose = "proxy"
                        double radius = 0.125
                        matrix4d xformOp:transform = ( (1, 0, 0, 0), (0, 1, 0, 0), (0, 0, 1, 0), (0, 0, 0.8999999999999986, 1) )
                        uniform token[] xformOpOrder = ["xformOp:transform"]
                    }

                    over "Geom" (
                        prepend apiSchemas = ["AecoDerivedGeometryAPI"]
                    )
                    {
                        uniform token aeco:derived:approx = "tessellated"
                        uniform token aeco:derived:role = "body"
                        string aeco:derived:source = "e4b8ed4b-bb06-525a-b907-1cb5c1d03950"
                        string aeco:derived:stamp = "Offline source fixture; no native solve"
                        float3[] extent = [(-0.125, -0.125, 0), (0.125, 0.125, 1.8)]
                        int[] faceVertexCounts = [3, 3, 3, 3, 3, 3, 3, 3, 3, 3, 3, 3, 3, 3, 3, 3, 3, 3, 3, 3, 3, 3, 3, 3, 3, 3, 3, 3, 3, 3, 3, 3, 3, 3, 3, 3, 3, 3, 3, 3, 3, 3, 3, 3, 3, 3, 3, 3, 3, 3, 3, 3, 3, 3, 3, 3, 3, 3, 3, 3, 3, 3, 3, 3, 3, 3, 3, 3, 3, 3, 3, 3, 3, 3, 3, 3, 3, 3, 3, 3, 3, 3, 3, 3, 3, 3, 3, 3, 3, 3, 3, 3, 3, 3, 3, 3, 3, 3, 3, 3, 3, 3, 3, 3, 3, 3, 3, 3, 3, 3, 3, 3, 3, 3, 3, 3, 3, 3, 3, 3, 3, 3, 3, 3]
                        int[] faceVertexIndices = [1, 0, 33, 2, 1, 33, 3, 2, 34, 2, 33, 34, 4, 3, 35, 3, 34, 35, 5, 4, 36, 4, 35, 36, 6, 5, 37, 7, 6, 37, 5, 36, 37, 7, 37, 38, 8, 7, 39, 7, 38, 39, 8, 39, 40, 9, 8, 40, 9, 40, 41, 10, 9, 41, 11, 10, 41, 11, 41, 42, 12, 11, 42, 12, 42, 43, 13, 12, 44, 12, 43, 44, 13, 44, 45, 14, 13, 45, 15, 14, 46, 14, 45, 46, 16, 15, 47, 15, 46, 47, 17, 16, 48, 16, 47, 48, 18, 17, 49, 17, 48, 49, 19, 18, 50, 18, 49, 50, 20, 19, 51, 19, 50, 51, 21, 20, 52, 22, 21, 52, 20, 51, 52, 23, 22, 53, 22, 52, 53, 23, 53, 54, 24, 23, 55, 25, 24, 55, 23, 54, 55, 25, 55, 56, 26, 25, 57, 27, 26, 57, 25, 56, 57, 27, 57, 58, 28, 27, 59, 27, 58, 59, 29, 28, 60, 28, 59, 60, 30, 29, 61, 29, 60, 61, 31, 30, 62, 30, 61, 62, 32, 31, 63, 31, 62, 63, 1, 32, 0, 32, 63, 0, 33, 0, 36, 34, 33, 36, 35, 34, 36, 38, 37, 36, 39, 38, 36, 40, 39, 36, 41, 40, 36, 42, 41, 36, 43, 42, 36, 44, 43, 36, 45, 44, 36, 46, 45, 36, 47, 46, 36, 48, 47, 36, 49, 48, 36, 50, 49, 36, 51, 50, 36, 52, 51, 36, 53, 52, 36, 54, 53, 36, 55, 54, 36, 56, 55, 36, 57, 56, 36, 58, 57, 36, 59, 58, 36, 60, 59, 36, 61, 60, 36, 62, 61, 36, 63, 62, 36, 0, 63, 36, 5, 1, 2, 5, 2, 3, 5, 3, 4, 5, 6, 7, 5, 7, 8, 5, 8, 9, 5, 9, 10, 5, 10, 11, 5, 11, 12, 5, 12, 13, 5, 13, 14, 5, 14, 15, 5, 15, 16, 5, 16, 17, 5, 17, 18, 5, 18, 19, 5, 19, 20, 5, 20, 21, 5, 21, 22, 5, 22, 23, 5, 23, 24, 5, 24, 25, 5, 25, 26, 5, 26, 27, 5, 27, 28, 5, 28, 29, 5, 29, 30, 5, 30, 31, 5, 31, 32, 5, 32, 1]
                        point3f[] points = [(0.125, 0, 0), (0.125, 0, 1.8), (0.12259816, 0.02438629, 1.8), (0.11548494, 0.04783543, 1.8), (0.1039337, 0.06944628, 1.8), (0.08838835, 0.08838835, 1.8), (0.06944628, 0.1039337, 1.8), (0.04783543, 0.11548494, 1.8), (0.02438629, 0.12259816, 1.8), (7.654042e-18, 0.125, 1.8), (-0.02438629, 0.12259816, 1.8), (-0.04783543, 0.11548494, 1.8), (-0.06944628, 0.1039337, 1.8), (-0.08838835, 0.08838835, 1.8), (-0.1039337, 0.06944628, 1.8), (-0.11548494, 0.04783543, 1.8), (-0.12259816, 0.02438629, 1.8), (-0.125, -9.571422e-17, 1.8), (-0.12259816, -0.02438629, 1.8), (-0.11548494, -0.04783543, 1.8), (-0.1039337, -0.06944628, 1.8), (-0.08838835, -0.08838835, 1.8), (-0.06944628, -0.1039337, 1.8), (-0.04783543, -0.11548494, 1.8), (-0.02438629, -0.12259816, 1.8), (3.101048e-16, -0.125, 1.8), (0.02438629, -0.12259816, 1.8), (0.04783543, -0.11548494, 1.8), (0.06944628, -0.1039337, 1.8), (0.08838835, -0.08838835, 1.8), (0.1039337, -0.06944628, 1.8), (0.11548494, -0.04783543, 1.8), (0.12259816, -0.02438629, 1.8), (0.12259816, 0.02438629, 0), (0.11548494, 0.04783543, 0), (0.1039337, 0.06944628, 0), (0.08838835, 0.08838835, 0), (0.06944628, 0.1039337, 0), (0.04783543, 0.11548494, 0), (0.02438629, 0.12259816, 0), (7.654042e-18, 0.125, 0), (-0.02438629, 0.12259816, 0), (-0.04783543, 0.11548494, 0), (-0.06944628, 0.1039337, 0), (-0.08838835, 0.08838835, 0), (-0.1039337, 0.06944628, 0), (-0.11548494, 0.04783543, 0), (-0.12259816, 0.02438629, 0), (-0.125, -9.571422e-17, 0), (-0.12259816, -0.02438629, 0), (-0.11548494, -0.04783543, 0), (-0.1039337, -0.06944628, 0), (-0.08838835, -0.08838835, 0), (-0.06944628, -0.1039337, 0), (-0.04783543, -0.11548494, 0), (-0.02438629, -0.12259816, 0), (3.101048e-16, -0.125, 0), (0.02438629, -0.12259816, 0), (0.04783543, -0.11548494, 0), (0.06944628, -0.1039337, 0), (0.08838835, -0.08838835, 0), (0.1039337, -0.06944628, 0), (0.11548494, -0.04783543, 0), (0.12259816, -0.02438629, 0)]
                        uniform token purpose = "render"
                        uniform token subdivisionScheme = "none"
                        matrix4d xformOp:transform = ( (1, 0, 0, 0), (0, 1, 0, 0), (0, 0, 1, 0), (0, 0, 0, 1) )
                        uniform token[] xformOpOrder = ["xformOp:transform"]
                    }
                }
            }
        }
    }
}

